<svg width="122" height="84" viewBox="0 0 122 84" fill="none" xmlns="http://www.w3.org/2000/svg">
<rect width="24.5554" height="4.41173" rx="2.20587" transform="matrix(-0.828657 0.559756 -0.529587 -0.848256 23 3.74228)" fill="#D9D9D9"/>
<rect width="24.9078" height="4.41173" rx="2.20587" transform="matrix(-0.828657 -0.559756 0.529587 -0.848256 20.64 29.1822)" fill="#D9D9D9"/>
<rect width="24.5554" height="4.41173" rx="2.20587" transform="matrix(-0.828657 0.559757 -0.529586 -0.848256 40 3.74228)" fill="#D9D9D9"/>
<rect width="24.9078" height="4.41173" rx="2.20587" transform="matrix(-0.828657 -0.559757 0.529586 -0.848256 37.6401 29.1822)" fill="#D9D9D9"/>
<mask id="path-5-outside-1_4_200" maskUnits="userSpaceOnUse" x="44" y="4.18222" width="26" height="17" fill="black">
<rect fill="white" x="44" y="4.18222" width="26" height="17"/>
<path d="M51.5071 5.63677V20.1822H48.4318V8.5558H48.3466L45.0156 10.6439V7.9166L48.6165 5.63677H51.5071ZM57.9329 5.63677L60.8661 10.5942H60.9798L63.9272 5.63677H67.4002L62.9613 12.9095L67.4996 20.1822H63.9627L60.9798 15.2177H60.8661L57.8832 20.1822H54.3604L58.913 12.9095L54.4457 5.63677H57.9329Z"/>
</mask>
<path d="M51.5071 5.63677V20.1822H48.4318V8.5558H48.3466L45.0156 10.6439V7.9166L48.6165 5.63677H51.5071ZM57.9329 5.63677L60.8661 10.5942H60.9798L63.9272 5.63677H67.4002L62.9613 12.9095L67.4996 20.1822H63.9627L60.9798 15.2177H60.8661L57.8832 20.1822H54.3604L58.913 12.9095L54.4457 5.63677H57.9329Z" fill="#D9D9D9"/>
<path d="M51.5071 5.63677H52.5071V4.63677H51.5071V5.63677ZM51.5071 20.1822V21.1822H52.5071V20.1822H51.5071ZM48.4318 20.1822H47.4318V21.1822H48.4318V20.1822ZM48.4318 8.5558H49.4318V7.5558H48.4318V8.5558ZM48.3466 8.5558V7.5558H48.0591L47.8155 7.70851L48.3466 8.5558ZM45.0156 10.6439H44.0156V12.451L45.5468 11.4912L45.0156 10.6439ZM45.0156 7.9166L44.4807 7.0717L44.0156 7.36615V7.9166H45.0156ZM48.6165 5.63677V4.63677H48.3265L48.0815 4.79187L48.6165 5.63677ZM50.5071 5.63677V20.1822H52.5071V5.63677H50.5071ZM51.5071 19.1822H48.4318V21.1822H51.5071V19.1822ZM49.4318 20.1822V8.5558H47.4318V20.1822H49.4318ZM48.4318 7.5558H48.3466V9.5558H48.4318V7.5558ZM47.8155 7.70851L44.4845 9.79658L45.5468 11.4912L48.8777 9.40309L47.8155 7.70851ZM46.0156 10.6439V7.9166H44.0156V10.6439H46.0156ZM45.5506 8.76149L49.1514 6.48166L48.0815 4.79187L44.4807 7.0717L45.5506 8.76149ZM48.6165 6.63677H51.5071V4.63677H48.6165V6.63677ZM57.9329 5.63677L58.7935 5.12754L58.5031 4.63677H57.9329V5.63677ZM60.8661 10.5942L60.0055 11.1034L60.2959 11.5942H60.8661V10.5942ZM60.9798 10.5942V11.5942H61.5486L61.8393 11.1052L60.9798 10.5942ZM63.9272 5.63677V4.63677H63.3584L63.0677 5.12571L63.9272 5.63677ZM67.4002 5.63677L68.2538 6.15774L69.1821 4.63677H67.4002V5.63677ZM62.9613 12.9095L62.1077 12.3885L61.7862 12.9153L62.1129 13.4389L62.9613 12.9095ZM67.4996 20.1822V21.1822H69.3024L68.348 19.6528L67.4996 20.1822ZM63.9627 20.1822L63.1055 20.6973L63.3969 21.1822H63.9627V20.1822ZM60.9798 15.2177L61.8369 14.7027L61.5455 14.2177H60.9798V15.2177ZM60.8661 15.2177V14.2177H60.3003L60.009 14.7027L60.8661 15.2177ZM57.8832 20.1822V21.1822H58.4489L58.7403 20.6973L57.8832 20.1822ZM54.3604 20.1822L53.5128 19.6516L52.5547 21.1822H54.3604V20.1822ZM58.913 12.9095L59.7606 13.4401L60.0896 12.9145L59.7651 12.3861L58.913 12.9095ZM54.4457 5.63677V4.63677H52.6578L53.5936 6.16017L54.4457 5.63677ZM57.0723 6.14599L60.0055 11.1034L61.7268 10.0849L58.7935 5.12754L57.0723 6.14599ZM60.8661 11.5942H60.9798V9.59415H60.8661V11.5942ZM61.8393 11.1052L64.7868 6.14782L63.0677 5.12571L60.1202 10.0831L61.8393 11.1052ZM63.9272 6.63677H67.4002V4.63677H63.9272V6.63677ZM66.5466 5.11579L62.1077 12.3885L63.8149 13.4305L68.2538 6.15774L66.5466 5.11579ZM62.1129 13.4389L66.6513 20.7116L68.348 19.6528L63.8097 12.3801L62.1129 13.4389ZM67.4996 19.1822H63.9627V21.1822H67.4996V19.1822ZM64.8199 19.6672L61.8369 14.7027L60.1226 15.7328L63.1055 20.6973L64.8199 19.6672ZM60.9798 14.2177H60.8661V16.2177H60.9798V14.2177ZM60.009 14.7027L57.026 19.6672L58.7403 20.6973L61.7233 15.7328L60.009 14.7027ZM57.8832 19.1822H54.3604V21.1822H57.8832V19.1822ZM55.2081 20.7128L59.7606 13.4401L58.0654 12.3789L53.5128 19.6516L55.2081 20.7128ZM59.7651 12.3861L55.2978 5.11336L53.5936 6.16017L58.0609 13.4329L59.7651 12.3861ZM54.4457 6.63677H57.9329V4.63677H54.4457V6.63677Z" fill="black" mask="url(#path-5-outside-1_4_200)"/>
<g filter="url(#filter0_d_4_200)">
<path d="M92.6006 18.5C92.6006 16.5109 92.0211 14.6032 90.9897 13.1967C89.9582 11.7902 88.5593 11 87.1006 11C85.6419 11 84.2429 11.7902 83.2115 13.1967C82.18 14.6032 81.6006 16.5109 81.6006 18.5L87.1006 18.5H92.6006Z" fill="#D9D9D9"/>
<rect x="81.6006" y="18" width="11" height="43" fill="#D9D9D9"/>
<rect x="70" y="39.7883" width="9.53666" height="21.9597" rx="4.76833" transform="rotate(-17 70 39.7883)" fill="#D9D9D9"/>
<rect x="89.6006" y="36" width="14" height="28" rx="7" fill="#D9D9D9"/>
<rect x="99.6006" y="37" width="12" height="29" rx="6" fill="#D9D9D9"/>
<rect x="108.6" y="40" width="9" height="26" rx="4.5" fill="#D9D9D9"/>
<rect x="89.6006" y="52" width="24" height="16" rx="8" fill="#D9D9D9"/>
<rect x="85.6006" y="53" width="26" height="23" rx="3" fill="#D9D9D9"/>
<rect x="82.6614" y="47.214" width="21.2664" height="12" rx="6" transform="rotate(52 82.6614 47.214)" fill="#D9D9D9"/>
</g>
<rect x="113.27" y="57.9373" width="6.64211" height="13.6744" rx="3.32105" transform="rotate(45 113.27 57.9373)" fill="#D9D9D9"/>
<path d="M96.1006 13C96.1006 16.9335 92.2964 20.5 87.1006 20.5C81.9048 20.5 78.1006 16.9335 78.1006 13C78.1006 9.06646 81.9048 5.5 87.1006 5.5C92.2964 5.5 96.1006 9.06646 96.1006 13Z" stroke="#D9D9D9" stroke-width="3"/>
<defs>
<filter id="filter0_d_4_200" x="67.1845" y="11" width="54.4159" height="73" filterUnits="userSpaceOnUse" color-interpolation-filters="sRGB">
<feFlood flood-opacity="0" result="BackgroundImageFix"/>
<feColorMatrix in="SourceAlpha" type="matrix" values="0 0 0 0 0 0 0 0 0 0 0 0 0 0 0 0 0 0 127 0" result="hardAlpha"/>
<feOffset dy="4"/>
<feGaussianBlur stdDeviation="2"/>
<feComposite in2="hardAlpha" operator="out"/>
<feColorMatrix type="matrix" values="0 0 0 0 0 0 0 0 0 0 0 0 0 0 0 0 0 0 0.25 0"/>
<feBlend mode="normal" in2="BackgroundImageFix" result="effect1_dropShadow_4_200"/>
<feBlend mode="normal" in="SourceGraphic" in2="effect1_dropShadow_4_200" result="shape"/>
</filter>
</defs>
</svg>
