<svg width="116" height="83" viewBox="0 0 116 83" fill="none" xmlns="http://www.w3.org/2000/svg">
<rect width="24.5554" height="4.41173" rx="2.20587" transform="matrix(0.828657 -0.559756 0.529587 0.848256 76 26.2577)" fill="#D9D9D9"/>
<rect width="24.9078" height="4.41173" rx="2.20587" transform="matrix(0.828657 0.559756 -0.529587 0.848256 78.36 0.81778)" fill="#D9D9D9"/>
<rect width="24.5554" height="4.41173" rx="2.20587" transform="matrix(0.828657 -0.559757 0.529586 0.848256 93 26.2577)" fill="#D9D9D9"/>
<rect width="24.9078" height="4.41173" rx="2.20587" transform="matrix(0.828657 0.559757 -0.529586 0.848256 95.3599 0.81778)" fill="#D9D9D9"/>
<mask id="path-5-outside-1_4_199" maskUnits="userSpaceOnUse" x="44" y="5" width="29" height="17" fill="black">
<rect fill="white" x="44" y="5" width="29" height="17"/>
<path d="M45.179 21V18.7841L50.3565 13.9901C50.7969 13.5639 51.1662 13.1804 51.4645 12.8395C51.7675 12.4986 51.9972 12.1648 52.1534 11.8381C52.3097 11.5066 52.3878 11.1491 52.3878 10.7656C52.3878 10.3395 52.2907 9.97254 52.0966 9.66477C51.9025 9.35227 51.6373 9.11316 51.3011 8.94744C50.965 8.77699 50.5838 8.69176 50.1577 8.69176C49.7126 8.69176 49.3243 8.78172 48.9929 8.96165C48.6615 9.14157 48.4058 9.39962 48.2259 9.7358C48.0459 10.072 47.956 10.4721 47.956 10.9361H45.0369C45.0369 9.98437 45.2524 9.15814 45.6832 8.45739C46.1141 7.75663 46.7178 7.21449 47.4943 6.83097C48.2708 6.44744 49.1657 6.25568 50.179 6.25568C51.2206 6.25568 52.1274 6.44034 52.8991 6.80966C53.6757 7.17424 54.2794 7.68087 54.7102 8.32955C55.1411 8.97822 55.3565 9.72159 55.3565 10.5597C55.3565 11.1089 55.2476 11.651 55.0298 12.1861C54.8168 12.7211 54.4356 13.3153 53.8864 13.9688C53.3371 14.6174 52.563 15.3963 51.5639 16.3054L49.4403 18.3864V18.4858H55.5483V21H45.179ZM60.7454 6.45455L63.6786 11.4119H63.7923L66.7397 6.45455H70.2127L65.7738 13.7273L70.3121 21H66.7752L63.7923 16.0355H63.6786L60.6957 21H57.1729L61.7255 13.7273L57.2582 6.45455H60.7454Z"/>
</mask>
<path d="M45.179 21V18.7841L50.3565 13.9901C50.7969 13.5639 51.1662 13.1804 51.4645 12.8395C51.7675 12.4986 51.9972 12.1648 52.1534 11.8381C52.3097 11.5066 52.3878 11.1491 52.3878 10.7656C52.3878 10.3395 52.2907 9.97254 52.0966 9.66477C51.9025 9.35227 51.6373 9.11316 51.3011 8.94744C50.965 8.77699 50.5838 8.69176 50.1577 8.69176C49.7126 8.69176 49.3243 8.78172 48.9929 8.96165C48.6615 9.14157 48.4058 9.39962 48.2259 9.7358C48.0459 10.072 47.956 10.4721 47.956 10.9361H45.0369C45.0369 9.98437 45.2524 9.15814 45.6832 8.45739C46.1141 7.75663 46.7178 7.21449 47.4943 6.83097C48.2708 6.44744 49.1657 6.25568 50.179 6.25568C51.2206 6.25568 52.1274 6.44034 52.8991 6.80966C53.6757 7.17424 54.2794 7.68087 54.7102 8.32955C55.1411 8.97822 55.3565 9.72159 55.3565 10.5597C55.3565 11.1089 55.2476 11.651 55.0298 12.1861C54.8168 12.7211 54.4356 13.3153 53.8864 13.9688C53.3371 14.6174 52.563 15.3963 51.5639 16.3054L49.4403 18.3864V18.4858H55.5483V21H45.179ZM60.7454 6.45455L63.6786 11.4119H63.7923L66.7397 6.45455H70.2127L65.7738 13.7273L70.3121 21H66.7752L63.7923 16.0355H63.6786L60.6957 21H57.1729L61.7255 13.7273L57.2582 6.45455H60.7454Z" fill="#D9D9D9"/>
<path d="M45.179 21H44.179V22H45.179V21ZM45.179 18.7841L44.4996 18.0503L44.179 18.3472V18.7841H45.179ZM50.3565 13.9901L51.0359 14.7238L51.044 14.7163L51.052 14.7087L50.3565 13.9901ZM51.4645 12.8395L50.7171 12.1751L50.7119 12.181L51.4645 12.8395ZM52.1534 11.8381L53.0556 12.2695L53.0579 12.2645L52.1534 11.8381ZM52.0966 9.66477L51.2471 10.1925L51.2508 10.1983L52.0966 9.66477ZM51.3011 8.94744L50.8489 9.8394L50.859 9.84438L51.3011 8.94744ZM48.2259 9.7358L49.1075 10.2077H49.1075L48.2259 9.7358ZM47.956 10.9361V11.9361H48.956V10.9361H47.956ZM45.0369 10.9361H44.0369V11.9361H45.0369V10.9361ZM45.6832 8.45739L46.5351 8.98116H46.5351L45.6832 8.45739ZM47.4943 6.83097L47.0515 5.93436L47.0515 5.93436L47.4943 6.83097ZM52.8991 6.80966L52.4675 7.71172L52.4741 7.71485L52.8991 6.80966ZM54.7102 8.32955L53.8772 8.88284V8.88284L54.7102 8.32955ZM55.0298 12.1861L54.1036 11.809L54.1008 11.8161L55.0298 12.1861ZM53.8864 13.9688L54.6495 14.6149L54.6518 14.6122L53.8864 13.9688ZM51.5639 16.3054L50.8909 15.5658L50.8772 15.5782L50.864 15.5912L51.5639 16.3054ZM49.4403 18.3864L48.7404 17.6721L48.4403 17.9662V18.3864H49.4403ZM49.4403 18.4858H48.4403V19.4858H49.4403V18.4858ZM55.5483 18.4858H56.5483V17.4858H55.5483V18.4858ZM55.5483 21V22H56.5483V21H55.5483ZM46.179 21V18.7841H44.179V21H46.179ZM45.8584 19.5179L51.0359 14.7238L49.6771 13.2563L44.4996 18.0503L45.8584 19.5179ZM51.052 14.7087C51.5058 14.2695 51.8955 13.8655 52.2171 13.498L50.7119 12.181C50.4369 12.4953 50.088 12.8583 49.6611 13.2715L51.052 14.7087ZM52.2119 13.5039C52.5618 13.1102 52.85 12.6993 53.0555 12.2695L51.2513 11.4066C51.1443 11.6303 50.9732 11.887 50.7171 12.1751L52.2119 13.5039ZM53.0579 12.2645C53.28 11.7934 53.3878 11.2895 53.3878 10.7656H51.3878C51.3878 11.0088 51.3393 11.2198 51.2489 11.4116L53.0579 12.2645ZM53.3878 10.7656C53.3878 10.1835 53.2535 9.62442 52.9424 9.13127L51.2508 10.1983C51.328 10.3207 51.3878 10.4955 51.3878 10.7656H53.3878ZM52.946 9.13709C52.6514 8.66275 52.2437 8.2972 51.7433 8.0505L50.859 9.84438C51.0309 9.92912 51.1536 10.0418 51.2471 10.1925L52.946 9.13709ZM51.7534 8.05554C51.2597 7.80522 50.7203 7.69176 50.1577 7.69176V9.69176C50.4474 9.69176 50.6702 9.74876 50.8489 9.83934L51.7534 8.05554ZM50.1577 7.69176C49.576 7.69176 49.018 7.81017 48.5158 8.08279L49.47 9.8405C49.6307 9.75328 49.8492 9.69176 50.1577 9.69176V7.69176ZM48.5158 8.08279C48.0106 8.35703 47.6152 8.7575 47.3442 9.26392L49.1075 10.2077C49.1963 10.0417 49.3123 9.92612 49.47 9.8405L48.5158 8.08279ZM47.3442 9.26392C47.0714 9.77352 46.956 10.3428 46.956 10.9361H48.956C48.956 10.6013 49.0204 10.3704 49.1075 10.2077L47.3442 9.26392ZM47.956 9.93608H45.0369V11.9361H47.956V9.93608ZM46.0369 10.9361C46.0369 10.1398 46.2155 9.50099 46.5351 8.98116L44.8314 7.93361C44.2893 8.8153 44.0369 9.82898 44.0369 10.9361H46.0369ZM46.5351 8.98116C46.8621 8.44933 47.32 8.03238 47.9372 7.72757L47.0515 5.93436C46.1156 6.3966 45.3661 7.06393 44.8314 7.93361L46.5351 8.98116ZM47.9372 7.72757C48.5544 7.42271 49.2933 7.25568 50.179 7.25568V5.25568C49.0381 5.25568 47.9873 5.47217 47.0515 5.93436L47.9372 7.72757ZM50.179 7.25568C51.1032 7.25568 51.8566 7.41936 52.4675 7.7117L53.3308 5.90762C52.3982 5.46133 51.3381 5.25568 50.179 5.25568V7.25568ZM52.4741 7.71485C53.1024 8.00982 53.5577 8.4018 53.8772 8.88284L55.5432 7.77625C55.001 6.95994 54.2489 6.33867 53.3241 5.90447L52.4741 7.71485ZM53.8772 8.88284C54.1908 9.35493 54.3565 9.90273 54.3565 10.5597H56.3565C56.3565 9.54045 56.0914 8.60151 55.5432 7.77625L53.8772 8.88284ZM54.3565 10.5597C54.3565 10.973 54.2753 11.3874 54.1036 11.809L55.956 12.5631C56.22 11.9146 56.3565 11.2448 56.3565 10.5597H54.3565ZM54.1008 11.8161C53.9414 12.2163 53.6312 12.7182 53.1209 13.3253L54.6518 14.6122C55.24 13.9125 55.6921 13.2259 55.9589 12.5561L54.1008 11.8161ZM53.1232 13.3226C52.6133 13.9248 51.8742 14.671 50.8909 15.5658L52.2369 17.045C53.2517 16.1216 54.061 15.3101 54.6495 14.6149L53.1232 13.3226ZM50.864 15.5912L48.7404 17.6721L50.1402 19.1006L52.2638 17.0196L50.864 15.5912ZM48.4403 18.3864V18.4858H50.4403V18.3864H48.4403ZM49.4403 19.4858H55.5483V17.4858H49.4403V19.4858ZM54.5483 18.4858V21H56.5483V18.4858H54.5483ZM55.5483 20H45.179V22H55.5483V20ZM60.7454 6.45455L61.606 5.94532L61.3156 5.45455H60.7454V6.45455ZM63.6786 11.4119L62.818 11.9212L63.1084 12.4119H63.6786V11.4119ZM63.7923 11.4119V12.4119H64.3611L64.6518 11.923L63.7923 11.4119ZM66.7397 6.45455V5.45455H66.1709L65.8802 5.94349L66.7397 6.45455ZM70.2127 6.45455L71.0663 6.97552L71.9946 5.45455H70.2127V6.45455ZM65.7738 13.7273L64.9202 13.2063L64.5987 13.7331L64.9254 14.2567L65.7738 13.7273ZM70.3121 21V22H72.1149L71.1605 20.4706L70.3121 21ZM66.7752 21L65.918 21.515L66.2094 22H66.7752V21ZM63.7923 16.0355L64.6494 15.5205L64.358 15.0355H63.7923V16.0355ZM63.6786 16.0355V15.0355H63.1128L62.8215 15.5205L63.6786 16.0355ZM60.6957 21V22H61.2614L61.5528 21.515L60.6957 21ZM57.1729 21L56.3253 20.4694L55.3672 22H57.1729V21ZM61.7255 13.7273L62.5731 14.2579L62.9021 13.7323L62.5776 13.2039L61.7255 13.7273ZM57.2582 6.45455V5.45455H55.4703L56.4061 6.97795L57.2582 6.45455ZM59.8848 6.96377L62.818 11.9212L64.5393 10.9027L61.606 5.94532L59.8848 6.96377ZM63.6786 12.4119H63.7923V10.4119H63.6786V12.4119ZM64.6518 11.923L67.5993 6.9656L65.8802 5.94349L62.9327 10.9009L64.6518 11.923ZM66.7397 7.45455H70.2127V5.45455H66.7397V7.45455ZM69.3591 5.93357L64.9202 13.2063L66.6274 14.2483L71.0663 6.97552L69.3591 5.93357ZM64.9254 14.2567L69.4638 21.5294L71.1605 20.4706L66.6222 13.1979L64.9254 14.2567ZM70.3121 20H66.7752V22H70.3121V20ZM67.6324 20.485L64.6494 15.5205L62.9351 16.5505L65.918 21.515L67.6324 20.485ZM63.7923 15.0355H63.6786V17.0355H63.7923V15.0355ZM62.8215 15.5205L59.8385 20.485L61.5528 21.515L64.5358 16.5505L62.8215 15.5205ZM60.6957 20H57.1729V22H60.6957V20ZM58.0206 21.5306L62.5731 14.2579L60.8779 13.1967L56.3253 20.4694L58.0206 21.5306ZM62.5776 13.2039L58.1103 5.93114L56.4061 6.97795L60.8734 14.2507L62.5776 13.2039ZM57.2582 7.45455H60.7454V5.45455H57.2582V7.45455Z" fill="black" mask="url(#path-5-outside-1_4_199)"/>
<g filter="url(#filter0_d_4_199)">
<path d="M26 17.5C26 15.5109 25.4205 13.6032 24.3891 12.1967C23.3576 10.7902 21.9587 10 20.5 10C19.0413 10 17.6424 10.7902 16.6109 12.1967C15.5795 13.6032 15 15.5109 15 17.5L20.5 17.5H26Z" fill="#D9D9D9"/>
<rect x="15" y="17" width="11" height="43" fill="#D9D9D9"/>
<rect x="3.39941" y="38.7883" width="9.53666" height="21.9597" rx="4.76833" transform="rotate(-17 3.39941 38.7883)" fill="#D9D9D9"/>
<rect x="23" y="35" width="14" height="28" rx="7" fill="#D9D9D9"/>
<rect x="33" y="36" width="12" height="29" rx="6" fill="#D9D9D9"/>
<rect x="41.9998" y="39" width="9" height="26" rx="4.5" fill="#D9D9D9"/>
<rect x="23" y="51" width="24" height="16" rx="8" fill="#D9D9D9"/>
<rect x="19" y="52" width="26" height="23" rx="3" fill="#D9D9D9"/>
<rect x="16.0608" y="46.214" width="21.2664" height="12" rx="6" transform="rotate(52 16.0608 46.214)" fill="#D9D9D9"/>
</g>
<rect x="46.6694" y="56.9373" width="6.64211" height="13.6744" rx="3.32105" transform="rotate(45 46.6694 56.9373)" fill="#D9D9D9"/>
<path d="M29.5 12C29.5 15.9335 25.6958 19.5 20.5 19.5C15.3042 19.5 11.5 15.9335 11.5 12C11.5 8.06646 15.3042 4.5 20.5 4.5C25.6958 4.5 29.5 8.06646 29.5 12Z" stroke="#D9D9D9" stroke-width="3"/>
<defs>
<filter id="filter0_d_4_199" x="0.583923" y="10" width="54.4159" height="73" filterUnits="userSpaceOnUse" color-interpolation-filters="sRGB">
<feFlood flood-opacity="0" result="BackgroundImageFix"/>
<feColorMatrix in="SourceAlpha" type="matrix" values="0 0 0 0 0 0 0 0 0 0 0 0 0 0 0 0 0 0 127 0" result="hardAlpha"/>
<feOffset dy="4"/>
<feGaussianBlur stdDeviation="2"/>
<feComposite in2="hardAlpha" operator="out"/>
<feColorMatrix type="matrix" values="0 0 0 0 0 0 0 0 0 0 0 0 0 0 0 0 0 0 0.25 0"/>
<feBlend mode="normal" in2="BackgroundImageFix" result="effect1_dropShadow_4_199"/>
<feBlend mode="normal" in="SourceGraphic" in2="effect1_dropShadow_4_199" result="shape"/>
</filter>
</defs>
</svg>
